<?xml version="1.0" encoding="UTF-8"?>
<svg width="213px" height="128px" viewBox="0 0 213 128" version="1.1" xmlns="http://www.w3.org/2000/svg" xmlns:xlink="http://www.w3.org/1999/xlink">
    <!-- Generator: Sketch 46.2 (44496) - http://www.bohemiancoding.com/sketch -->
    <title>Tablet</title>
    <desc>Created with Sketch.</desc>
    <defs></defs>
    <g id="Page-1" stroke="none" stroke-width="1" fill="none" fill-rule="evenodd">
        <g id="Tablet">
            <g id="z" transform="translate(26.000000, 8.000000)">
                <path d="M83.5620301,101.979774 C109.663932,102.53897 158,91.3768775 158,84.1270229 C158,76.8771683 134.695728,71 83.5620301,71 C32.4283319,71 1.06764209,75.8111756 0.0161065479,84.1270229 C-1.035429,92.4428702 49.6344193,101.215472 83.5620301,101.979774 Z" id="Oval-10" fill="#E2EFFF"></path>
                <g id="Group-5">
                    <g id="Teddy-Bear">
                        <path d="M41.2261748,21.7159448 C53.9485694,16.3740153 73.0086351,16.371127 84.0456881,24.0724092 C87.6202704,26.7474209 90.3102921,33.0845055 92.1157531,43.083663 L45.0331581,43.083663 L45.0331581,43.0836496 C38.9453297,43.0836496 34.0101696,38.1484895 34.0101696,32.0606611 C34.0101696,27.4410101 36.8907827,23.3114227 41.2261748,21.7159448 C41.2261748,21.7159448 41.2261748,21.7159448 41.2261748,21.7159448 Z" id="Rectangle-8" fill="#6F9DD4" transform="translate(63.062961, 30.523301) rotate(15.000000) translate(-63.062961, -30.523301) "></path>
                        <g id="Group-3" transform="translate(11.148071, 18.879287)">
                            <path d="M131.464744,6.90012817 L142.001249,6.90012817 L142.001249,6.90012817 C146.721675,6.90012817 150.548336,10.7267895 150.548336,15.4472154 L150.548336,15.4472154 L150.548336,15.4472154 C150.548336,20.1676414 146.721675,23.9943027 142.001249,23.9943027 L131.464744,23.9943027 L131.464744,6.90012817 Z" id="Rectangle-3" fill="#6F9DD4" transform="translate(141.006540, 15.447215) rotate(-24.000000) translate(-141.006540, -15.447215) "></path>
                            <path d="M135.726836,9.88378304 L141.034057,9.88378304 L141.034057,9.88378304 C143.411728,9.88378304 145.339212,11.8112665 145.339212,14.1889379 L145.339212,14.1889379 L145.339212,14.1889379 C145.339212,16.5666093 143.411728,18.4940928 141.034057,18.4940928 L135.726836,18.4940928 L135.726836,9.88378304 Z" id="Rectangle-3" fill="#5377A2" transform="translate(140.533024, 14.188938) rotate(-24.000000) translate(-140.533024, -14.188938) "></path>
                            <path d="M110.972221,66.729739 C130.753827,66.729739 144.275529,50.2962318 144.275529,29.500989 C144.275529,8.70574622 130.754974,1.93523666 110.972221,0.0795434396 C91.1906138,0.0795434396 74.4537593,7.20226035 74.2139684,24.2571654 C74.2139684,53.3564149 87.9938161,66.729739 110.972221,66.729739 Z" id="Oval-2" fill="#6F9DD4"></path>
                            <path d="M128.527066,51.2413578 L129.020431,51.2114233 L129.020431,51.2114233 C134.157035,50.8997632 138.573726,54.8111534 138.885386,59.9477578 C138.896786,60.1356454 138.90249,60.3238352 138.90249,60.5120683 L138.90249,60.5120683 L138.90249,60.5120683 C138.90249,65.6204634 134.761318,69.7616358 129.652923,69.7616358 C129.17003,69.7616358 128.687878,69.7238202 128.210889,69.6485358 C126.057883,69.3087114 124.554478,68.8618339 123.700675,68.3078942 C126.325345,62.6709615 127.934142,56.9821161 128.527066,51.2413578 Z" id="Rectangle-3" fill="#6F9DD4" transform="translate(131.301583, 60.477828) rotate(43.000000) translate(-131.301583, -60.477828) "></path>
                            <ellipse id="Oval-4" fill="#415E81" cx="102.463693" cy="34.0967987" rx="2.07828158" ry="2.09432909"></ellipse>
                            <ellipse id="Oval-4" fill="#415E81" cx="108.977458" cy="15.8367962" rx="1.96282149" ry="1.97797747"></ellipse>
                            <path d="M1.20090347,18.9404595 C16.7632378,6.39589855 57.4337575,-2.86804164 79.8139617,18.9404595 C85.3886683,25.8976021 86.4540225,36.7154503 83.0100243,51.3940042 L83.0100251,51.3940044 C81.3710921,58.3792479 75.9370176,63.8455049 68.9615735,65.5256559 C46.8941356,70.840963 26.4877232,69.8137745 7.74233638,62.4440903 C3.37260783,45.8578775 -2.57529172,38.3415026 1.20090347,18.9404595 Z" id="Rectangle-5" fill="#6F9DD4"></path>
                            <path d="M21.2073951,19.2766158 C33.581932,9.78047098 51.3654491,10.9156137 69.2760898,16.9288709 C72.8681463,23.9454084 76.6038763,45.9249951 64.8909159,54.91345 C55.6892976,58.3599719 46.3414636,59.6441365 36.8474139,58.765944 L36.8474103,58.7659837 C23.7524742,57.5547119 14.1188609,45.957239 15.3301327,32.862303 C15.7961397,27.8243497 17.8547296,23.0657806 21.2073951,19.2766158 C21.2073951,19.2766158 21.2073951,19.2766158 21.2073951,19.2766158 Z" id="Stomach" fill="#8AB7ED"></path>
                            <path d="M66.7925715,12.2420577 C69.0807723,9.18414508 76.4870369,9.39736859 78.2371399,12.2420577 C75.9707868,15.6853579 74.5659936,19.6027729 74.0227603,23.9943027 L69.4430704,23.9943027 C65.9785009,18.898549 65.0950013,14.981134 66.7925715,12.2420577 Z" id="Rectangle-10" fill="#415E81"></path>
                            <path d="M66.8874752,31.9921778 C69.1747767,28.9342652 74.6997648,28.3268866 76.4491801,31.1715758 C74.5917883,36.2303338 74.3029281,40.6480779 74.2123371,42.8599391 C74.1818175,43.4495949 72.6233493,43.7444228 69.5369324,43.7444228 C66.0737246,38.6486691 65.1905722,34.7312541 66.8874752,31.9921778 Z" id="Rectangle-10" fill="#415E81" transform="translate(71.249808, 36.540328) scale(1, -1) translate(-71.249808, -36.540328) "></path>
                            <path d="M74.0809318,23.4508547 C73.7475477,26.3222466 73.7952308,28.6031022 74.2239811,30.2934216 C71.8897024,31.2858887 70.2850863,31.3321345 69.0828353,30.2934216 C67.7724256,28.7342688 67.8200942,24.9278639 69.0828353,23.9244849 C69.9246626,23.2555656 71.5906948,23.0976888 74.0809318,23.4508547 Z" id="Path-4" fill="#304660"></path>
                            <path d="M126.751162,53.2447369 L126.777565,53.2446039 L126.777565,53.2446039 C130.269813,53.227015 133.115097,56.0437823 133.132686,59.5360296 C133.132739,59.5466453 133.132766,59.5572612 133.132766,59.567877 L133.132766,59.5782888 L133.132766,59.5782888 C133.132766,62.8768306 130.45877,65.5508271 127.160228,65.5508271 C127.039897,65.5508271 126.919593,65.5471906 126.799481,65.5399224 L126.799481,65.5399224 C127.021742,62.6498617 127.134774,60.5557444 127.138577,59.2575707 C127.142381,57.959397 127.013242,55.9551191 126.751162,53.2447369 Z" id="Rectangle-3" fill="#5377A2" transform="translate(129.941964, 59.397675) rotate(59.000000) translate(-129.941964, -59.397675) "></path>
                        </g>
                        <path d="M0.402675775,21.6394597 C4.10597968,12.950422 20.2604237,7.51892857 27.4176139,12.0886168 C30.4380147,25.3034756 30.0571818,26.4028625 31.118023,36.2867803 C24.9959873,36.8032395 18.776266,39.0946605 12.4588591,43.1610432 C5.99282588,36.1960208 1.9740981,29.0221596 0.402675775,21.6394597 Z" id="Rectangle-6" fill="#6F9DD4"></path>
                        <path d="M22.8340057,27.8411478 C33.1479362,24.9409298 39.768283,16.6366594 37.6209642,9.29304083 C35.4736453,1.94942224 25.3718067,-1.65266564 15.0578762,1.24755238 C4.74394563,4.1477704 0.518328277,11.4161635 0.270917725,19.7956593 C0.0235071721,28.1751552 12.5200752,30.7413658 22.8340057,27.8411478 Z" id="Oval-5" fill="#6F9DD4"></path>
                        <path d="M5.62524144,70.478232 C7.88213931,67.776375 16.3288308,62.974986 30.0356894,60.7859304 C30.723695,60.6760524 32.0372849,60.4241768 33.9764591,60.0303035 L33.9764566,60.0302912 C41.9148685,58.4178895 49.6573326,63.546134 51.2697343,71.4845458 C51.5202944,72.7181402 51.6110095,73.9788579 51.5396429,75.2356166 L51.5396429,75.2356166 L51.5396429,75.2356166 C50.9886207,84.9390611 42.675733,92.3585653 32.9722885,91.8075431 C32.4547925,91.7781564 31.9388474,91.7259207 31.4259625,91.6509885 C31.1561871,91.6115813 30.9019775,91.5743875 30.6633327,91.5394137 C27.1155629,91.4229332 22.4805822,91.174862 16.7583906,90.7952001 L16.758393,90.7951634 C9.18813546,90.2928841 3.45840701,83.7488 3.96068633,76.1785424 C4.09330068,74.1798043 4.66142468,72.2342495 5.62524144,70.478232 C5.62524144,70.478232 5.62524144,70.478232 5.62524144,70.478232 Z" id="Rectangle-7" fill="#6F9DD4" transform="translate(27.746633, 75.785134) rotate(9.000000) translate(-27.746633, -75.785134) "></path>
                        <path d="M89.5635852,87.8976029 C100.440365,80.6251466 118.054443,69.3655441 123.732831,76.7082392 C130.805246,85.5834454 124.551219,96.1902773 116.467377,101.637612 C111.201045,104.784649 98.3641343,106.677183 77.9566437,107.315213 C79.8768549,98.8034055 83.7458354,92.3308686 89.5635852,87.8976029 Z" id="Rectangle-9" fill="#6F9DD4" transform="translate(102.383930, 90.817155) rotate(44.000000) translate(-102.383930, -90.817155) "></path>
                    </g>
                    <ellipse id="Oval-6" fill="#5377A2" transform="translate(15.233497, 13.135814) rotate(-19.000000) translate(-15.233497, -13.135814) " cx="15.2334974" cy="13.1358137" rx="10.7746952" ry="6.29268561"></ellipse>
                    <ellipse id="Oval-7" fill="#5377A2" transform="translate(24.782395, 5.057975) rotate(-28.000000) translate(-24.782395, -5.057975) " cx="24.7823952" cy="5.05797524" rx="1.06019955" ry="1"></ellipse>
                    <ellipse id="Oval-7" fill="#5377A2" transform="translate(29.160265, 7.777535) rotate(-28.000000) translate(-29.160265, -7.777535) " cx="29.1602645" cy="7.77753498" rx="1.57543877" ry="1.11688774"></ellipse>
                    <ellipse id="Oval-7" fill="#5377A2" transform="translate(28.490698, 13.615243) rotate(-28.000000) translate(-28.490698, -13.615243) " cx="28.4906975" cy="13.6152428" rx="2.10449612" ry="1.65065618"></ellipse>
                    <ellipse id="Oval-8" fill="#5377A2" cx="23.3403657" cy="75.9935528" rx="11.1320953" ry="8.54708727"></ellipse>
                    <ellipse id="Oval-9" fill="#5377A2" cx="38.7132591" cy="69.5832374" rx="2.1203991" ry="2.13677182"></ellipse>
                    <ellipse id="Oval-9" fill="#5377A2" cx="35.5326605" cy="85.609026" rx="2.1203991" ry="2.13677182"></ellipse>
                    <ellipse id="Oval-9" fill="#5377A2" cx="41.8938578" cy="78.1303247" rx="3.18059864" ry="3.20515773"></ellipse>
                </g>
                <g id="Group-6" transform="translate(95.000000, 33.000000)" stroke="#415E81" stroke-linecap="square">
                    <path d="M5.90276392,4.26070862 L2.71262069,2.93929138" id="Line-3"></path>
                    <path d="M2.54332655,3.03631996 L1.78826813,0.281714142" id="Line-4"></path>
                    <path d="M2.69230769,3 L0.00414520291,4.99692071" id="Line-5"></path>
                </g>
                <g id="PAtches" transform="translate(35.000000, 30.000000)">
                    <path d="M1.81358628,2.65107225 C4.04605458,1.12254749 9.86929691,0.120566359 12.62825,1.7810517 C13.7748129,2.47099296 14.9143473,9.07026445 13.1496133,9.86245945 C9.95167391,11.2755375 5.2700794,11.6756403 2.25741761,9.86245945 C0.461847797,8.49276289 0.685322817,3.33714484 1.81358628,2.65107225 Z" id="Rectangle-11" fill="#5377A2"></path>
                    <path d="M13.4375,5.07692308 L14.6875,4.15384615" id="Line-8" stroke="#304660" stroke-width="0.5" stroke-linecap="square"></path>
                    <path d="M13.125,6.46153846 L15,6.63061587" id="Line-9" stroke="#304660" stroke-width="0.5" stroke-linecap="square"></path>
                    <path d="M0,4.61538462 L1.875,4.77499278" id="Line-8" stroke="#304660" stroke-width="0.5" stroke-linecap="square"></path>
                    <path d="M0.3515625,6.46153846 L2.109375,6.15384615" id="Line-9" stroke="#304660" stroke-width="0.5" stroke-linecap="square"></path>
                    <path d="M6.14566779,1.84615385 L5.625,0" id="Line-7" stroke="#304660" stroke-width="0.5" stroke-linecap="square"></path>
                    <path d="M7.96875,1.53846154 L7.03125,0.307692308" id="Line-6" stroke="#304660" stroke-width="0.5" stroke-linecap="square"></path>
                    <path d="M7.5,12 L7.69599087,10.1538462" id="Line-7" stroke="#304660" stroke-width="0.5" stroke-linecap="square"></path>
                    <path d="M9.84375,11.6923077 L8.90625,10.4615385" id="Line-6" stroke="#304660" stroke-width="0.5" stroke-linecap="square"></path>
                </g>
                <path d="M101.117471,36.6147839 C101.85893,34.7703255 107.450129,33.038207 108.574694,34.6192612 C110.046818,36.7444177 107.375994,42.7255204 105.456946,42.989575 C103.558713,43.2507658 100.345637,38.5348049 101.117471,36.6147839 Z" id="Rectangle-13" fill="#415E81" transform="translate(105.000000, 38.500000) rotate(6.000000) translate(-105.000000, -38.500000) "></path>
            </g>
        </g>
    </g>
</svg>